<?xml version="1.0" encoding="UTF-8"?>
<svg id="Camada_2" data-name="Camada 2" xmlns="http://www.w3.org/2000/svg" viewBox="0 0 391.77 95.68">
  <defs>
    <style>
      .cls-1 {
        fill: #fff;
      }

      .cls-2 {
        font-family: Anton-Regular, Anton;
        font-size: 65px;
      }

      .cls-2, .cls-3 {
        fill: #1d1d1b;
      }
    </style>
  </defs>
  <g id="Camada_1-2" data-name="Camada 1">
    <g>
      <g>
        <g>
          <path d="m105.14,12.66c1.2-1.65,5.24-5.22,7.6-6.68,2.69-1.61,2.07-1.74,7.18-3.78,2.74-1.09,4.45-1.41,6.29-1.45s3.67.18,5.45.63h0c.58.15,1.16.35,1.67.67,2.59,1.66,2.91,1.69,4.86,4.68,2.97,4.58,2.61,6.86,2.54,12.09-.08,3.81-.95,6.98-1.83,9.38-1.01,2.31-1.34,4.17-2.45,5.66-12.59-11.71-15.45-14.34-31.3-21.22Z"/>
          <path d="m48.45,49.77c.82-10.25-4.1-16.24-13.74-19.13-.08-.02-.08-.13-.01-.16,2.27-1.16,4.22-2.22,6.23-3.16,8.99-4.19,18.42-6.21,28.26-6.01,10.73.22,21.2,3.34,30.61,8.5.14.07.27.15.41.23.26.15.43.45.64.68-.27.18-.51.42-.81.52-1.07.37-2.21.58-3.24,1.05-6.69,3.04-10.39,9.87-9.38,17.17,0,.07-.03.14-.08.38-12.87-6.06-25.77-6.47-38.77.03-.06.03-.13-.02-.12-.09Z"/>
          <path d="m102.13,63.18c9.93-.26,15.76-5.26,17.58-14.94l.5-.12c1.08,1.58,2.25,3.1,3.19,4.76,3.25,5.68,5.79,11.68,7.13,18.1,1.06,5.09-.96,9.27-5.06,12.17-3.86,2.73-8.19,2.88-12.35.5-2.89-1.65-4.9-4.14-5.7-7.47-1.08-4.51-5.37-13-5.3-13.01Z"/>
          <path d="m33.75,63.24c.06,0,.1.08.07.14-.64,1.1-1.42,2.2-1.92,3.43-1.33,3.25-2.68,6.51-3.74,9.86-1.42,4.5-5.06,7.82-9.51,8.35-5.66.67-9.6-1.95-11.99-5.89-1.93-3.18-1.73-6.63-.82-9.91,1.09-3.96,2.55-7.85,4.24-11.61,1.31-2.91,3.19-5.58,4.85-8.33.21-.34.67-.52,1.02-.78.18.39.45.77.53,1.18,1.37,6.95,5.73,11.08,12.38,12.93,1.57.44,3.25.45,4.9.65Z"/>
          <path d="m56.06,79.86c-.25-6.43,6.2-17.05,12.55-16.74,6.3.31,12.02,11.39,12,16.89-.02,6.7-6.47,6.34-12.77,6.31-5.99-.03-12.31-.17-11.77-6.47Z"/>
          <path d="m103.45,55.49c-4.02.28-8.94-3.82-8.58-9.17.29-4.35,4.06-8.06,8.9-7.95,4.49.1,8.33,3.94,8.28,8.4-.05,4.86-3.89,8.75-8.6,8.71Z"/>
          <path d="m32.32,55.51c-4.75-.04-8.58-4-8.53-8.82.04-4.29,4.1-8.33,8.37-8.33,4.76,0,8.87,3.86,8.84,8.3-.04,4.84-4.01,8.89-8.68,8.86Z"/>
        </g>
        <path d="m87.42,49.45s10.28,5.32,14.7,13.72c4.42,8.4,18.65-1.76,18.96-5.2s-.87-9.86-.87-9.86c0,0-10.4-12.99-20.01-18.08-9.61-5.1-13.82,8.72-13.82,8.72l1.04,10.7Z"/>
        <path class="cls-1" d="m118.37,45.92s-4.05,10.07-14.86,11.43-20.89-8.09-20.89-8.09c0,0,7.36-12.39,18.23-13.01,10.21-.58,17.51,9.67,17.51,9.67Z"/>
        <circle cx="98.83" cy="47.12" r="7.68"/>
        <path d="m52.26,48.25s-14.11,7.68-18.83,15.73c-4.8,8.19-18.56-1.74-18.87-5.18s.36-9.53.36-9.53c0,0,10.15-13.69,19.76-18.79,9.61-5.1,14.58,9.09,14.58,9.09l2.99,8.68Z"/>
        <path class="cls-1" d="m16.4,47.39s4.94,9.42,15.75,10.78c10.8,1.36,20.89-8.09,20.89-8.09,0,0-7.43-11.65-18.23-13.01-10.8-1.36-18.4,10.32-18.4,10.32Z"/>
        <circle cx="35.67" cy="47.12" r="7.68"/>
        <path d="m35.63,11.91c-1.2-1.65-5.24-5.22-7.6-6.68-2.69-1.61-2.07-1.74-7.18-3.78C18.12.37,16.41.05,14.57,0s-3.67.18-5.45.63h0c-.58.15-1.16.35-1.67.67-2.59,1.66-2.91,1.69-4.86,4.68C-.39,10.57-.02,12.85.05,18.08c.08,3.81.95,6.98,1.83,9.38,1.01,2.31,1.34,4.17,2.45,5.66,12.59-11.71,15.45-14.34,31.3-21.22Z"/>
        <path d="m83.42,48.12c-5.09,6.23-6.92,13.57-7.81,19.61l-15.1.34c-1.62-6.58-4.16-13.77-8.69-19.73,13.16-6.44,18.84-6.79,31.61-.22Z"/>
      </g>
      <text class="cls-2" transform="translate(172.14 60.43)"><tspan x="0" y="0">PET CODE</tspan></text>
      <g>
        <path class="cls-3" d="m197.56,85.2c0-2.46,1.94-3.87,4.19-3.87,1.18,0,2.11.45,2.72,1.04l-.82,1.09c-.58-.46-1.16-.71-1.82-.71-1.48,0-2.49.98-2.49,2.46s1,2.44,2.44,2.44c.84,0,1.53-.37,2.1-.81l.73,1.11c-.85.74-1.93,1.12-2.98,1.12-2.31,0-4.07-1.41-4.07-3.85Z"/>
        <path class="cls-3" d="m206.25,85.2c0-2.46,1.76-3.87,3.7-3.87s3.7,1.41,3.7,3.87-1.76,3.85-3.7,3.85-3.7-1.41-3.7-3.85Zm5.62,0c0-1.48-.72-2.46-1.92-2.46s-1.92.98-1.92,2.46.72,2.44,1.92,2.44,1.92-.97,1.92-2.44Z"/>
        <path class="cls-3" d="m215.15,81.5h1.33l.13.94h.04c.33-.64.79-1.12,1.64-1.12.68,0,1.14.42,1.34,1.24.34-.73.83-1.24,1.68-1.24,1.04,0,1.64.86,1.64,2.33v5.22h-1.67v-5.1c0-.65-.17-.97-.59-.97s-.63.3-.92.92v5.15h-1.44v-5.1c0-.65-.17-.97-.58-.97-.39,0-.65.3-.92.92v5.15h-1.67v-7.37Z"/>
        <path class="cls-3" d="m224.69,81.5h1.42l.13.84h.05c.64-.59,1.52-1.02,2.37-1.02,1.91,0,3,1.47,3,3.75,0,2.51-1.56,3.97-3.27,3.97-.66,0-1.4-.32-2-.87h-.04l.08,1.29v2.32h-1.73v-10.28Zm5.19,3.58c0-1.47-.52-2.33-1.71-2.33-.56,0-1.15.26-1.74.88v3.31c.54.49,1.16.66,1.6.66,1.05,0,1.85-.86,1.85-2.53Z"/>
        <path class="cls-3" d="m233.49,86.07v-4.56h1.74v4.34c0,1.17.37,1.72,1.38,1.72.69,0,1.19-.29,1.85-1.09v-4.97h1.73v7.37h-1.43l-.13-1.17h-.06c-.7.8-1.51,1.35-2.61,1.35-1.71,0-2.46-1.09-2.46-2.98Z"/>
        <path class="cls-3" d="m244.3,85.91v-3.03h-1.97v-1.29l2.04-.08.23-2.31h1.44v2.31h3.35v1.37h-3.35v3.02c0,1.22.46,1.77,1.7,1.77.61,0,1.12-.12,1.6-.3l.34,1.26c-.66.22-1.4.42-2.36.42-2.25,0-3.02-1.26-3.02-3.14Z"/>
        <path class="cls-3" d="m251.51,86.89c0-1.65,1.45-2.47,5.09-2.73-.06-.82-.55-1.44-1.75-1.44-.83,0-1.65.36-2.41.78l-.64-1.15c.89-.54,2.1-1.03,3.37-1.03,2.04,0,3.17,1.14,3.17,3.19v4.36h-1.43l-.13-.91h-.05c-.77.6-1.76,1.09-2.75,1.09-1.44,0-2.47-.88-2.47-2.16Zm5.09-.1v-1.55c-2.65.17-3.41.72-3.41,1.51,0,.65.57.93,1.3.93s1.43-.35,2.11-.89Z"/>
        <path class="cls-3" d="m260.55,85.2c0-2.46,1.94-3.87,4.19-3.87,1.18,0,2.11.45,2.72,1.04l-.82,1.09c-.58-.46-1.16-.71-1.82-.71-1.48,0-2.49.98-2.49,2.46s1,2.44,2.44,2.44c.84,0,1.53-.37,2.1-.81l.73,1.11c-.85.74-1.93,1.12-2.98,1.12-2.31,0-4.07-1.41-4.07-3.85Zm2.49,6.42c1.22-.08,1.58-.28,1.58-.71,0-.35-.27-.56-1.15-.68l.68-1.51h1.05l-.42,1.08c.72.17,1.12.47,1.12,1.09,0,.95-.99,1.39-2.72,1.46l-.14-.74Z"/>
        <path class="cls-3" d="m269.51,86.89c0-1.65,1.45-2.47,5.09-2.73-.06-.82-.55-1.44-1.75-1.44-.83,0-1.65.36-2.41.78l-.64-1.15c.89-.54,2.1-1.03,3.37-1.03,2.04,0,3.17,1.14,3.17,3.19v4.36h-1.43l-.13-.91h-.05c-.77.6-1.76,1.09-2.75,1.09-1.44,0-2.47-.88-2.47-2.16Zm2.74-7.76c-.37,0-.56.36-.61,1l-1.11-.06c.04-1.36.59-2.16,1.69-2.16,1,0,1.46,1.11,2.05,1.11.36,0,.55-.37.6-1l1.11.07c-.04,1.35-.59,2.15-1.69,2.15-1,0-1.46-1.11-2.04-1.11Zm2.35,7.66v-1.55c-2.65.17-3.41.72-3.41,1.51,0,.65.57.93,1.3.93s1.43-.35,2.11-.89Z"/>
        <path class="cls-3" d="m278.25,85.2c0-2.46,1.76-3.87,3.7-3.87s3.7,1.41,3.7,3.87-1.76,3.85-3.7,3.85-3.7-1.41-3.7-3.85Zm5.62,0c0-1.48-.72-2.46-1.92-2.46s-1.92.98-1.92,2.46.72,2.44,1.92,2.44,1.92-.97,1.92-2.44Z"/>
        <path class="cls-3" d="m296.37,85.18c0-2.4,1.83-3.85,3.8-3.85,2.2,0,3.42,1.46,3.42,3.5,0,.35-.05.68-.08.87h-5.9v-1.22h4.78l-.33.38c0-1.46-.68-2.19-1.84-2.19-1.22,0-2.16.88-2.16,2.52s1.03,2.53,2.56,2.53c.77,0,1.41-.23,2.07-.6l.59,1.07c-.79.51-1.8.87-2.89.87-2.26,0-4.03-1.42-4.03-3.87Z"/>
        <path class="cls-3" d="m314.25,85.2c0-2.4,1.57-3.87,3.24-3.87.84,0,1.46.32,2.03.86h.04l-.08-1.24v-2.67h1.74v10.59h-1.42l-.13-.86h-.05c-.57.58-1.39,1.04-2.22,1.04-1.9,0-3.14-1.42-3.14-3.85Zm5.23,1.54v-3.31c-.53-.49-1.04-.66-1.57-.66-1.03,0-1.88.88-1.88,2.42s.67,2.44,1.79,2.44c.61,0,1.15-.27,1.67-.88Z"/>
        <path class="cls-3" d="m323.37,85.18c0-2.4,1.83-3.85,3.8-3.85,2.2,0,3.42,1.46,3.42,3.5,0,.35-.05.68-.08.87h-5.9v-1.22h4.78l-.33.38c0-1.46-.68-2.19-1.84-2.19-1.22,0-2.16.88-2.16,2.52s1.03,2.53,2.56,2.53c.77,0,1.41-.23,2.07-.6l.59,1.07c-.79.51-1.8.87-2.89.87-2.26,0-4.03-1.42-4.03-3.87Z"/>
        <path class="cls-3" d="m332.38,87.91l.76-1.11c.88.58,1.88.93,3.08.93,1.02,0,1.5-.39,1.5-.88s-.32-.75-2.04-1.11c-1.97-.41-2.84-1.11-2.84-2.23,0-1.28,1.17-2.2,3.23-2.2,1.22,0,2.34.48,3.08.97l-.8,1.07c-.71-.46-1.56-.74-2.44-.74-.95,0-1.35.37-1.35.82,0,.52.54.7,1.92,1,2.35.52,2.97,1.15,2.97,2.32,0,1.27-1.22,2.29-3.46,2.29-1.38,0-2.7-.52-3.61-1.14Z"/>
        <path class="cls-3" d="m344.9,82.88h-3.18v-1.37h4.92v7.37h-1.73v-5.99Zm-.48-3.88c0-.69.52-1.17,1.23-1.17s1.23.48,1.23,1.17-.52,1.16-1.23,1.16-1.23-.46-1.23-1.16Z"/>
        <path class="cls-3" d="m350.38,90.17c0-.6.41-1.14,1.18-1.55v-.06c-.4-.23-.75-.61-.75-1.23,0-.48.34-1.01.88-1.38v-.06c-.52-.37-.94-1.03-.94-1.9,0-1.69,1.41-2.65,3.03-2.65.43,0,.82.06,1.15.18h3.02v1.32h-1.69c.25.28.47.74.47,1.22,0,1.64-1.29,2.5-2.95,2.5-.34,0-.74-.07-1.12-.21-.29.19-.45.4-.45.69,0,.48.47.7,1.39.7h1.5c1.91,0,2.9.51,2.9,1.8,0,1.46-1.65,2.62-4.25,2.62-2.03,0-3.37-.65-3.37-1.96Zm5.95-.36c0-.58-.51-.73-1.48-.73h-1.18c-.48,0-.83-.03-1.12-.11-.53.3-.73.62-.73.97,0,.66.78,1.04,2.13,1.04,1.44,0,2.38-.54,2.38-1.17Zm-1.15-5.83c0-.9-.63-1.46-1.4-1.46s-1.39.56-1.39,1.46.63,1.48,1.39,1.48,1.4-.55,1.4-1.48Z"/>
        <path class="cls-3" d="m359.69,81.5h1.42l.13,1.11h.06c.71-.71,1.53-1.29,2.66-1.29,1.7,0,2.47,1.09,2.47,2.98v4.56h-1.74v-4.34c0-1.18-.38-1.72-1.37-1.72-.73,0-1.22.35-1.89,1.04v5.02h-1.74v-7.37Z"/>
      </g>
    </g>
  </g>
</svg>
