<svg width="69" height="69" viewBox="0 0 69 69" fill="none" xmlns="http://www.w3.org/2000/svg">
<g id="Botao de Fechar" opacity="0.87" filter="url(#filter0_d_333_5100)">
<circle id="Ellipse 1" cx="28.6187" cy="28.6187" r="28.6187" transform="matrix(-1 0 0 1 63.2705 0.1875)" fill="white"/>
<g id="Group 6">
<g id="Group 30">
<path id="Union" fill-rule="evenodd" clip-rule="evenodd" d="M27.8689 16.0497C27.022 15.2028 27.022 13.8297 27.8689 12.9828C28.7158 12.1359 30.0888 12.1359 30.9357 12.9828L45.2421 27.285C45.686 27.729 45.8973 28.3175 45.8757 28.8991C45.9505 29.5355 45.7437 30.1987 45.2555 30.687L30.9339 45.0116C30.087 45.8585 28.7139 45.8585 27.867 45.0116C27.0201 44.1647 27.0201 42.7916 27.867 41.9447L40.816 28.993L27.8689 16.0497Z" fill="black"/>
</g>
</g>
</g>
<defs>
<filter id="filter0_d_333_5100" x="0.543859" y="0.1875" width="68.216" height="68.217" filterUnits="userSpaceOnUse" color-interpolation-filters="sRGB">
<feFlood flood-opacity="0" result="BackgroundImageFix"/>
<feColorMatrix in="SourceAlpha" type="matrix" values="0 0 0 0 0 0 0 0 0 0 0 0 0 0 0 0 0 0 127 0" result="hardAlpha"/>
<feOffset dy="5.48934"/>
<feGaussianBlur stdDeviation="2.74467"/>
<feComposite in2="hardAlpha" operator="out"/>
<feColorMatrix type="matrix" values="0 0 0 0 0 0 0 0 0 0 0 0 0 0 0 0 0 0 0.3 0"/>
<feBlend mode="normal" in2="BackgroundImageFix" result="effect1_dropShadow_333_5100"/>
<feBlend mode="normal" in="SourceGraphic" in2="effect1_dropShadow_333_5100" result="shape"/>
</filter>
</defs>
</svg>
