<?xml version="1.0" standalone="no"?>
<!DOCTYPE svg PUBLIC "-//W3C//DTD SVG 20010904//EN"
 "http://www.w3.org/TR/2001/REC-SVG-20010904/DTD/svg10.dtd">
<svg version="1.0" xmlns="http://www.w3.org/2000/svg"
 width="600.000000pt" height="203.000000pt" viewBox="0 0 600.000000 203.000000"
 preserveAspectRatio="xMidYMid meet">

<g transform="translate(0.000000,203.000000) scale(0.100000,-0.100000)"
fill="#000000" stroke="none">
<path d="M410 1503 c-27 -10 -71 -57 -92 -98 -18 -34 -20 -52 -15 -130 3 -59
12 -110 27 -147 l23 -58 76 68 c94 84 142 118 251 172 47 23 87 44 90 47 10 9
-89 85 -154 118 -57 29 -79 35 -130 34 -33 0 -68 -3 -76 -6z"/>
<path d="M1865 1465 c-66 -33 -165 -109 -155 -118 3 -3 43 -24 90 -47 109 -54
157 -88 251 -172 l76 -68 23 58 c16 39 24 86 28 148 5 102 -9 143 -68 199 -28
26 -39 30 -103 33 -66 2 -78 0 -142 -33z"/>
<path d="M4070 1451 c-45 -14 -71 -35 -93 -76 -21 -38 -22 -56 -25 -290 -3
-244 -2 -251 20 -295 43 -85 162 -116 258 -68 69 35 84 71 85 198 l0 105 -72
3 -73 3 0 -79 c0 -85 -13 -117 -46 -110 -18 3 -19 14 -19 238 0 224 1 235 19
238 31 6 46 -26 46 -95 l0 -63 70 0 70 0 0 90 c0 97 -10 129 -52 166 -43 39
-124 54 -188 35z"/>
<path d="M4473 1450 c-46 -15 -89 -62 -102 -114 -17 -69 -15 -450 4 -512 24
-81 83 -124 171 -124 86 0 152 50 174 131 7 25 10 128 8 272 -3 213 -5 235
-24 272 -12 22 -35 48 -53 58 -36 22 -132 31 -178 17z m101 -146 c3 -9 6 -109
6 -224 0 -115 -3 -215 -6 -224 -3 -9 -16 -16 -29 -16 -13 0 -26 7 -29 16 -12
31 -7 439 6 452 17 17 45 15 52 -4z"/>
<path d="M2640 1081 l0 -371 70 0 70 0 0 145 0 145 45 0 c110 0 160 53 171
181 9 103 -9 181 -51 228 l-33 36 -136 3 -136 4 0 -371z m194 223 c11 -11 16
-34 16 -78 0 -67 -10 -86 -47 -86 -22 0 -23 3 -23 90 0 82 2 90 19 90 11 0 27
-7 35 -16z"/>
<path d="M3050 1080 l0 -370 155 0 155 0 0 70 0 70 -80 0 -80 0 0 85 0 85 70
0 70 0 0 70 0 70 -70 0 -70 0 0 75 0 75 75 0 75 0 0 70 0 70 -150 0 -150 0 0
-370z"/>
<path d="M3380 1380 l0 -70 45 0 45 0 0 -300 0 -300 75 0 75 0 0 300 0 300 45
0 45 0 0 70 0 70 -165 0 -165 0 0 -70z"/>
<path d="M4790 1080 l0 -370 131 0 c153 0 177 9 212 80 21 43 22 56 22 300 0
284 -3 301 -68 340 -27 17 -51 20 -164 20 l-133 0 0 -370z m210 221 c15 -29
13 -434 -2 -449 -7 -7 -22 -12 -35 -12 l-23 0 0 240 0 240 25 0 c14 0 29 -8
35 -19z"/>
<path d="M5220 1080 l0 -370 155 0 155 0 0 70 0 70 -80 0 -80 0 0 85 0 85 70
0 70 0 0 70 0 70 -70 0 -70 0 0 75 0 75 75 0 75 0 0 70 0 70 -150 0 -150 0 0
-370z"/>
<path d="M1085 1219 c-153 -22 -330 -102 -430 -194 l-60 -55 44 21 c105 53
206 27 309 -79 64 -65 102 -130 137 -232 l24 -70 -30 -57 c-24 -45 -29 -67
-27 -107 3 -47 6 -52 38 -69 28 -14 54 -17 137 -15 91 3 105 6 125 26 32 31
28 87 -11 167 l-32 64 16 62 c36 139 136 274 241 325 46 23 63 26 110 21 30
-3 72 -15 92 -26 l37 -21 -45 41 c-168 155 -434 233 -675 198z"/>
<path d="M732 975 c-22 -10 -38 -27 -48 -51 -18 -43 -13 -73 20 -111 49 -57
155 -27 171 47 10 44 -18 98 -59 115 -42 18 -42 18 -84 0z"/>
<path d="M1584 975 c-72 -30 -86 -105 -30 -161 22 -22 44 -34 61 -34 91 0 139
104 78 169 -34 36 -68 44 -109 26z"/>
<path d="M1880 893 c0 -6 -20 -33 -45 -61 -51 -56 -107 -84 -176 -85 l-45 -1
30 -45 c17 -25 44 -80 60 -121 49 -126 64 -154 98 -177 79 -52 168 -32 221 49
25 38 28 49 23 96 -8 71 -57 194 -107 273 -47 73 -59 88 -59 72z"/>
<path d="M471 812 c-51 -86 -101 -223 -101 -282 0 -87 64 -150 153 -150 88 0
126 34 166 150 27 75 64 144 97 180 l23 25 -58 1 c-74 1 -139 33 -196 96 l-43
48 -41 -68z"/>
<path d="M4916 463 c-11 -11 -6 -23 9 -23 8 0 15 4 15 9 0 13 -16 22 -24 14z"/>
<path d="M3920 451 c0 -4 16 -8 35 -9 19 -1 35 2 35 7 0 4 -16 8 -35 9 -19 1
-35 -2 -35 -7z"/>
<path d="M4570 437 c0 -18 -5 -23 -22 -23 -27 1 -50 -38 -39 -68 7 -16 17 -21
50 -22 l41 -2 0 69 c0 55 -3 69 -15 69 -9 0 -15 -9 -15 -23z m0 -67 c0 -23 -4
-30 -20 -30 -14 0 -20 7 -20 23 0 27 7 37 27 37 8 0 13 -12 13 -30z"/>
<path d="M3570 435 c0 -8 -7 -15 -15 -15 -8 0 -15 -4 -15 -10 0 -5 6 -10 14
-10 10 0 16 -13 18 -37 3 -35 6 -38 36 -41 18 -2 32 1 32 7 0 6 -11 11 -25 11
-21 0 -25 5 -25 30 0 26 4 30 26 30 14 0 23 4 19 10 -3 6 -15 10 -26 10 -10 0
-19 7 -19 15 0 8 -4 15 -10 15 -5 0 -10 -7 -10 -15z"/>
<path d="M2954 395 c-9 -14 -13 -32 -9 -44 7 -24 46 -37 72 -25 14 6 11 9 -15
12 -29 3 -33 6 -30 30 2 21 9 28 31 30 33 4 26 22 -8 22 -15 0 -31 -10 -41
-25z"/>
<path d="M3078 409 c-22 -12 -24 -62 -4 -79 21 -16 56 -9 72 15 28 42 -24 91
-68 64z m50 -42 c3 -22 -1 -27 -18 -27 -23 0 -35 22 -26 46 10 25 41 12 44
-19z"/>
<path d="M3180 368 c0 -27 5 -48 10 -48 6 0 10 18 10 40 0 22 5 40 10 40 6 0
10 -18 10 -40 0 -22 5 -40 10 -40 6 0 10 18 10 40 0 22 5 40 10 40 6 0 10 -18
10 -40 0 -22 5 -40 11 -40 6 0 9 19 7 48 l-3 47 -47 0 -48 0 0 -47z"/>
<path d="M3310 348 c0 -39 4 -68 10 -68 6 0 10 9 10 20 0 15 7 20 25 20 34 0
53 39 37 75 -10 21 -18 25 -47 23 l-35 -3 0 -67z m64 37 c8 -23 -4 -45 -25
-45 -13 0 -19 7 -19 23 0 37 32 53 44 22z"/>
<path d="M3427 413 c-10 -10 -8 -52 3 -73 7 -14 20 -19 45 -18 35 1 35 1 35
50 0 56 -17 65 -22 11 -2 -27 -8 -39 -20 -41 -15 -3 -18 4 -18 37 0 38 -8 50
-23 34z"/>
<path d="M3680 410 c-11 -7 -7 -10 18 -10 41 0 42 -16 1 -24 -25 -5 -30 -10
-27 -28 3 -20 9 -23 47 -24 l43 -1 -5 40 c-7 53 -39 72 -77 47z m50 -55 c0 -8
-9 -15 -20 -15 -22 0 -27 15 -7 23 21 9 27 7 27 -8z"/>
<path d="M3808 409 c-27 -15 -23 -61 8 -88 21 -18 23 -25 13 -37 -10 -12 -9
-13 5 -8 11 4 16 14 13 25 -3 11 3 20 17 24 18 6 16 8 -14 14 -29 5 -35 10
-35 31 0 20 6 26 28 28 15 2 25 8 22 13 -8 12 -35 11 -57 -2z"/>
<path d="M3920 410 c-11 -7 -7 -10 18 -10 41 0 42 -16 1 -24 -25 -5 -30 -10
-27 -28 3 -20 9 -23 47 -24 l43 -1 -5 40 c-7 53 -39 72 -77 47z m50 -55 c0 -8
-9 -15 -20 -15 -22 0 -27 15 -7 23 21 9 27 7 27 -8z"/>
<path d="M4042 408 c-7 -7 -12 -24 -12 -38 0 -31 17 -50 45 -50 29 0 45 19 45
52 0 40 -51 63 -78 36z m53 -38 c0 -18 -6 -26 -22 -28 -18 -3 -23 1 -23 21 0
28 9 39 30 35 9 -2 15 -14 15 -28z"/>
<path d="M4288 409 c-21 -12 -24 -59 -6 -77 14 -14 68 -16 68 -2 0 6 -11 10
-24 10 -14 0 -28 5 -31 10 -4 6 8 10 29 10 28 0 36 4 36 18 0 37 -36 52 -72
31z m52 -19 c0 -5 -12 -10 -26 -10 -14 0 -23 4 -19 10 3 6 15 10 26 10 10 0
19 -4 19 -10z"/>
<path d="M4648 409 c-21 -12 -24 -59 -6 -77 14 -14 68 -16 68 -2 0 6 -11 10
-24 10 -14 0 -28 5 -31 10 -4 6 8 10 29 10 28 0 36 4 36 18 0 37 -36 52 -72
31z m52 -19 c0 -5 -12 -10 -26 -10 -14 0 -23 4 -19 10 3 6 15 10 26 10 10 0
19 -4 19 -10z"/>
<path d="M4767 413 c-17 -16 -5 -42 24 -52 39 -13 30 -29 -13 -23 -25 3 -30 2
-22 -8 6 -6 27 -10 45 -8 26 2 35 8 37 26 3 18 -2 23 -27 28 -41 8 -40 24 2
24 24 0 28 3 17 10 -17 11 -54 13 -63 3z"/>
<path d="M4875 410 c-4 -6 5 -10 19 -10 24 0 26 -4 26 -40 0 -22 5 -40 10 -40
6 0 10 23 10 50 0 49 -1 50 -29 50 -17 0 -33 -4 -36 -10z"/>
<path d="M5005 409 c-4 -5 -7 -36 -8 -67 l-2 -57 36 -3 c23 -2 40 2 48 12 16
19 6 36 -22 36 -39 0 -52 17 -18 23 22 5 31 12 31 27 0 11 5 20 10 20 6 0 10
5 10 10 0 13 -77 13 -85 -1z m45 -24 c0 -8 -7 -15 -15 -15 -8 0 -15 7 -15 15
0 8 7 15 15 15 8 0 15 -7 15 -15z m10 -80 c0 -15 -43 -12 -48 3 -3 10 4 13 22
10 15 -2 26 -7 26 -13z"/>
<path d="M5110 368 c0 -35 4 -48 14 -48 10 0 16 13 18 37 2 27 8 39 21 41 14
3 17 -4 17 -37 0 -23 5 -41 11 -41 6 0 9 19 7 48 l-3 47 -42 1 -43 1 0 -49z"/>
</g>
</svg>
